solid robot_beetle
facet normal 1.0 -0.0 1.640707771670325e-13
outer loop
vertex 1016.31912495241 119.78558781553166 8.940343165621456
vertex 1016.3191249524094 105.70558781553167 12.2403431656092
vertex 1016.31912495241 105.70558781553167 8.940343165621456
endloop
endfacet
facet normal 1.0 -0.0 1.640707771670325e-13
outer loop
vertex 1016.3191249524094 105.70558781553167 12.2403431656092
vertex 1016.31912495241 119.78558781553166 8.940343165621456
vertex 1016.3191249524094 119.78558781553166 12.2403431656092
endloop
endfacet
facet normal 0.0 -1.0 0.0
outer loop
vertex 1016.3191249524094 105.70558781553167 12.2403431656092
vertex 987.7191249524097 105.70558781553167 8.940343165621503
vertex 1016.31912495241 105.70558781553167 8.940343165621456
endloop
endfacet
facet normal 0.0 -1.0 0.0
outer loop
vertex 987.7191249524097 105.70558781553167 8.940343165621503
vertex 1016.3191249524094 105.70558781553167 12.2403431656092
vertex 987.7191249524093 105.70558781553167 12.240343165608524
endloop
endfacet
facet normal -1.0 0.0 -1.6407077716706835e-13
outer loop
vertex 987.7191249524093 119.78558781553166 12.240343165608524
vertex 987.7191249524097 105.70558781553167 8.940343165621503
vertex 987.7191249524093 105.70558781553167 12.240343165608524
endloop
endfacet
facet normal -1.0 0.0 -1.6407077716706835e-13
outer loop
vertex 987.7191249524097 105.70558781553167 8.940343165621503
vertex 987.7191249524093 119.78558781553166 12.240343165608524
vertex 987.7191249524097 119.78558781553166 8.940343165621503
endloop
endfacet
facet normal -2.366405439900319e-14 4.8600607648122495e-43 1.0
outer loop
vertex 987.7191249524093 105.70558781553167 12.240343165608524
vertex 988.8016832497809 106.78814611290292 12.240343165609021
vertex 987.7191249524093 119.78558781553166 12.240343165608524
endloop
endfacet
facet normal -2.366405439900319e-14 4.8600607648122495e-43 1.0
outer loop
vertex 988.8016832497809 106.78814611290292 12.240343165609021
vertex 987.7191249524093 105.70558781553167 12.240343165608524
vertex 1016.3191249524094 105.70558781553167 12.2403431656092
endloop
endfacet
facet normal -2.366405439900319e-14 4.8600607648122495e-43 1.0
outer loop
vertex 988.8016832497809 106.78814611290292 12.240343165609021
vertex 1016.3191249524094 105.70558781553167 12.2403431656092
vertex 1015.2365666550385 106.78814611290292 12.240343165609112
endloop
endfacet
facet normal -2.366405439900319e-14 4.8600607648122495e-43 1.0
outer loop
vertex 1015.2365666550385 106.78814611290292 12.240343165609112
vertex 1016.3191249524094 105.70558781553167 12.2403431656092
vertex 1015.2365666550385 118.70302951816038 12.240343165609112
endloop
endfacet
facet normal -2.366405439900319e-14 4.8600607648122495e-43 1.0
outer loop
vertex 987.7191249524093 119.78558781553166 12.240343165608524
vertex 988.8016832497809 118.70302951816038 12.240343165609021
vertex 1016.3191249524094 119.78558781553166 12.2403431656092
endloop
endfacet
facet normal -2.366405439900319e-14 4.8600607648122495e-43 1.0
outer loop
vertex 988.8016832497809 118.70302951816038 12.240343165609021
vertex 987.7191249524093 119.78558781553166 12.240343165608524
vertex 988.8016832497809 106.78814611290292 12.240343165609021
endloop
endfacet
facet normal -2.366405439900319e-14 4.8600607648122495e-43 1.0
outer loop
vertex 1016.3191249524094 119.78558781553166 12.2403431656092
vertex 988.8016832497809 118.70302951816038 12.240343165609021
vertex 1015.2365666550385 118.70302951816038 12.240343165609112
endloop
endfacet
facet normal -2.366405439900319e-14 4.8600607648122495e-43 1.0
outer loop
vertex 1016.3191249524094 119.78558781553166 12.2403431656092
vertex 1015.2365666550385 118.70302951816038 12.240343165609112
vertex 1016.3191249524094 105.70558781553167 12.2403431656092
endloop
endfacet
facet normal -1.5776036266002126e-15 -3.240040509874833e-44 -1.0
outer loop
vertex 1016.31912495241 119.78558781553166 8.940343165621456
vertex 987.7191249524097 105.70558781553167 8.940343165621503
vertex 987.7191249524097 119.78558781553166 8.940343165621503
endloop
endfacet
facet normal -1.5776036266002126e-15 -3.240040509874833e-44 -1.0
outer loop
vertex 987.7191249524097 105.70558781553167 8.940343165621503
vertex 1016.31912495241 119.78558781553166 8.940343165621456
vertex 1016.31912495241 105.70558781553167 8.940343165621456
endloop
endfacet
facet normal -0.0 1.0 -0.0
outer loop
vertex 987.7191249524097 119.78558781553166 8.940343165621503
vertex 1016.3191249524094 119.78558781553166 12.2403431656092
vertex 1016.31912495241 119.78558781553166 8.940343165621456
endloop
endfacet
facet normal -0.0 1.0 -0.0
outer loop
vertex 1016.3191249524094 119.78558781553166 12.2403431656092
vertex 987.7191249524097 119.78558781553166 8.940343165621503
vertex 987.7191249524093 119.78558781553166 12.240343165608524
endloop
endfacet
facet normal 1.0 -0.0 -1.5693726511569244e-13
outer loop
vertex 988.8016832497806 118.70302951816038 9.940343165608777
vertex 988.8016832497809 106.78814611290292 12.240343165609021
vertex 988.8016832497806 106.78814611290292 9.940343165608777
endloop
endfacet
facet normal 1.0 -0.0 -1.5693726511569244e-13
outer loop
vertex 988.8016832497809 106.78814611290292 12.240343165609021
vertex 988.8016832497806 118.70302951816038 9.940343165608777
vertex 988.8016832497809 118.70302951816038 12.240343165609021
endloop
endfacet
facet normal -1.0 0.0 -1.5693726511571397e-13
outer loop
vertex 1015.2365666550385 118.70302951816038 12.240343165609112
vertex 1015.2365666550388 106.78814611290292 9.940343165609182
vertex 1015.2365666550385 106.78814611290292 12.240343165609112
endloop
endfacet
facet normal -1.0 0.0 -1.5693726511571397e-13
outer loop
vertex 1015.2365666550388 106.78814611290292 9.940343165609182
vertex 1015.2365666550385 118.70302951816038 12.240343165609112
vertex 1015.2365666550388 118.70302951816038 9.940343165609182
endloop
endfacet
facet normal 0.0 -1.0 0.0
outer loop
vertex 1015.2365666550388 118.70302951816038 9.940343165609182
vertex 988.8016832497809 118.70302951816038 12.240343165609021
vertex 988.8016832497806 118.70302951816038 9.940343165608777
endloop
endfacet
facet normal 0.0 -1.0 0.0
outer loop
vertex 988.8016832497809 118.70302951816038 12.240343165609021
vertex 1015.2365666550388 118.70302951816038 9.940343165609182
vertex 1015.2365666550385 118.70302951816038 12.240343165609112
endloop
endfacet
facet normal -1.5361337792249346e-14 -0.0 1.0
outer loop
vertex 1015.2365666550388 106.78814611290292 9.940343165609182
vertex 988.8016832497806 118.70302951816038 9.940343165608777
vertex 988.8016832497806 106.78814611290292 9.940343165608777
endloop
endfacet
facet normal -1.5361337792249346e-14 -0.0 1.0
outer loop
vertex 988.8016832497806 118.70302951816038 9.940343165608777
vertex 1015.2365666550388 106.78814611290292 9.940343165609182
vertex 1015.2365666550388 118.70302951816038 9.940343165609182
endloop
endfacet
facet normal -0.0 1.0 -0.0
outer loop
vertex 988.8016832497809 106.78814611290292 12.240343165609021
vertex 1015.2365666550388 106.78814611290292 9.940343165609182
vertex 988.8016832497806 106.78814611290292 9.940343165608777
endloop
endfacet
facet normal -0.0 1.0 -0.0
outer loop
vertex 1015.2365666550388 106.78814611290292 9.940343165609182
vertex 988.8016832497809 106.78814611290292 12.240343165609021
vertex 1015.2365666550385 106.78814611290292 12.240343165609112
endloop
endfacet
endsolid robot_beetle
