solid robot_beetle
facet normal 1.0 -1.8230058585822592e-14 -3.1817486822682444e-17
outer loop
vertex 1020.3799026600096 18.992497987930136 2.003138544885197
vertex 1020.3799026600099 28.881138274993273 8.520407395643975
vertex 1020.3799026600096 18.981153353551782 8.503128644821558
endloop
endfacet
facet normal 1.0 -1.8230058585822592e-14 -3.1817486822682444e-17
outer loop
vertex 1020.3799026600099 28.881138274993273 8.520407395643975
vertex 1020.3799026600096 18.992497987930136 2.003138544885197
vertex 1020.3799026600099 28.892482909371644 2.0204172957076163
endloop
endfacet
facet normal -1.0 -4.0106128888809704e-14 -6.999847100978115e-17
outer loop
vertex 1009.6799026600096 28.431138960382135 8.519621997879332
vertex 1009.6799026600099 19.439879309992083 3.503921658019866
vertex 1009.6799026600099 19.431152668162575 8.503914042586235
endloop
endfacet
facet normal -1.0 -4.0106128888809704e-14 -6.999847100978115e-17
outer loop
vertex 1009.6799026600099 19.439879309992083 3.503921658019866
vertex 1009.6799026600096 28.431138960382135 8.519621997879332
vertex 1009.6799026600096 28.439865602211615 3.5196296133128926
endloop
endfacet
facet normal 2.0839473752264133e-14 -0.9999984769132878 -0.0017453283658957898
outer loop
vertex 1009.6799026600096 28.431138960382135 8.519621997879332
vertex 1007.3799026600097 28.439865602211565 3.5196296133129077
vertex 1009.6799026600096 28.439865602211615 3.5196296133128926
endloop
endfacet
facet normal 2.0839473752264133e-14 -0.9999984769132878 -0.0017453283658957898
outer loop
vertex 1007.3799026600097 28.439865602211565 3.5196296133129077
vertex 1009.6799026600096 28.431138960382135 8.519621997879332
vertex 1007.3799026600097 28.43113896038209 8.519621997879327
endloop
endfacet
facet normal 0.0 0.9999984769132878 0.0017453283658997493
outer loop
vertex 1007.3799026600097 19.431152668162575 8.503914042586235
vertex 1009.6799026600099 19.439879309992083 3.503921658019866
vertex 1007.3799026600097 19.439879309992083 3.503921658019866
endloop
endfacet
facet normal 0.0 0.9999984769132878 0.0017453283658997493
outer loop
vertex 1009.6799026600099 19.439879309992083 3.503921658019866
vertex 1007.3799026600097 19.431152668162575 8.503914042586235
vertex 1009.6799026600099 19.431152668162575 8.503914042586235
endloop
endfacet
facet normal 7.316307701477243e-15 -0.9999984769132878 -0.001745328365898437
outer loop
vertex 1018.5799026600097 17.181156095107852 8.499987053762935
vertex 997.3799026600099 17.19250072948604 1.9999969538265756
vertex 1018.5799026600097 17.192500729486206 1.999996953826574
endloop
endfacet
facet normal 7.316307701477243e-15 -0.9999984769132878 -0.001745328365898437
outer loop
vertex 997.3799026600099 17.19250072948604 1.9999969538265756
vertex 1018.5799026600097 17.181156095107852 8.499987053762935
vertex 1005.8307193330279 17.181156095107767 8.49998705376293
endloop
endfacet
facet normal 7.316307701477243e-15 -0.9999984769132878 -0.001745328365898437
outer loop
vertex 1005.8307193330279 17.181156095107767 8.49998705376293
vertex 997.3799288929212 17.180002312008728 9.69998649880296
vertex 997.3799026600099 17.19250072948604 1.9999969538265756
endloop
endfacet
facet normal 7.316307701477243e-15 -0.9999984769132878 -0.001745328365898437
outer loop
vertex 997.3799288929212 17.180002312008728 9.69998649880296
vertex 1005.8307193330279 17.181156095107767 8.49998705376293
vertex 1005.8307455659393 17.180002312008785 9.699986498802968
endloop
endfacet
facet normal -1.0 -1.5560992184939513e-14 8.635178588486042e-15
outer loop
vertex 997.379928892921 30.6799817503377 9.72354843174262
vertex 997.3799026600099 17.19250072948604 1.9999969538265756
vertex 997.3799288929212 17.180002312008728 9.69998649880296
endloop
endfacet
facet normal -1.0 -1.5560992184939513e-14 8.635178588486042e-15
outer loop
vertex 997.3799026600099 17.19250072948604 1.9999969538265756
vertex 997.379928892921 30.6799817503377 9.72354843174262
vertex 997.3799026600096 30.69248016781503 2.023558886766205
endloop
endfacet
facet normal -2.2481876207729075e-14 0.9999984769132878 0.0017453283659010362
outer loop
vertex 997.379928892921 30.6799817503377 9.72354843174262
vertex 1018.5799026600097 30.69248016781552 2.0235588867662377
vertex 997.3799026600096 30.69248016781503 2.023558886766205
endloop
endfacet
facet normal -2.2481876207729075e-14 0.9999984769132878 0.0017453283659010362
outer loop
vertex 1018.5799026600097 30.69248016781552 2.0235588867662377
vertex 997.379928892921 30.6799817503377 9.72354843174262
vertex 1005.8307193330279 30.681135533436876 8.511768020232758
endloop
endfacet
facet normal -2.2481876207729075e-14 0.9999984769132878 0.0017453283659010362
outer loop
vertex 1005.8307193330279 30.681135533436876 8.511768020232758
vertex 997.379928892921 30.6799817503377 9.72354843174262
vertex 1005.8307455659393 30.679981750337884 9.711767465272796
endloop
endfacet
facet normal -2.2481876207729075e-14 0.9999984769132878 0.0017453283659010362
outer loop
vertex 1018.5799026600097 30.68113553343715 8.523548986702599
vertex 1018.5799026600097 30.69248016781552 2.0235588867662377
vertex 1005.8307193330279 30.681135533436876 8.511768020232758
endloop
endfacet
facet normal 0.7071067811865592 -0.7071057042015934 -0.0012341335229255385
outer loop
vertex 1018.5799026600097 17.192500729486206 1.999996953826574
vertex 1020.3799026600096 18.981153353551782 8.503128644821558
vertex 1018.5799026600097 17.181156095107852 8.499987053762935
endloop
endfacet
facet normal 0.7071067811865592 -0.7071057042015934 -0.0012341335229255385
outer loop
vertex 1020.3799026600096 18.981153353551782 8.503128644821558
vertex 1018.5799026600097 17.192500729486206 1.999996953826574
vertex 1020.3799026600096 18.992497987930136 2.003138544885197
endloop
endfacet
facet normal 2.186075872761974e-05 -0.0009614859158287321 0.9999995375333637
outer loop
vertex 997.3799288929212 17.180002312008728 9.69998649880296
vertex 1005.8307455659393 30.679981750337884 9.711767465272796
vertex 997.379928892921 30.6799817503377 9.72354843174262
endloop
endfacet
facet normal 2.186075872761974e-05 -0.0009614859158287321 0.9999995375333637
outer loop
vertex 1005.8307455659393 30.679981750337884 9.711767465272796
vertex 997.3799288929212 17.180002312008728 9.69998649880296
vertex 1005.8307455659393 17.180002312008785 9.699986498802968
endloop
endfacet
facet normal 0.9999999997610538 1.9077123021045416e-08 -2.1860750489878844e-05
outer loop
vertex 1005.8307193330279 17.181156095107767 8.49998705376293
vertex 1005.8307455659393 30.679981750337884 9.711767465272796
vertex 1005.8307455659393 17.180002312008785 9.699986498802968
endloop
endfacet
facet normal 0.9999999997610538 1.9077123021045416e-08 -2.1860750489878844e-05
outer loop
vertex 1005.8307455659393 30.679981750337884 9.711767465272796
vertex 1005.8307193330279 17.181156095107767 8.49998705376293
vertex 1005.8307193330279 30.681135533436876 8.511768020232758
endloop
endfacet
facet normal 1.0 0.0 0.0
outer loop
vertex 1007.3799026600097 19.439879309992083 3.503921658019866
vertex 1007.3799026600097 28.43113896038209 8.519621997879327
vertex 1007.3799026600097 19.431152668162575 8.503914042586235
endloop
endfacet
facet normal 1.0 0.0 0.0
outer loop
vertex 1007.3799026600097 28.43113896038209 8.519621997879327
vertex 1007.3799026600097 19.439879309992083 3.503921658019866
vertex 1007.3799026600097 28.439865602211565 3.5196296133129077
endloop
endfacet
facet normal 7.076489788936248e-16 0.0017453283659000487 -0.9999984769132878
outer loop
vertex 1018.5799026600097 30.69248016781552 2.0235588867662377
vertex 997.3799026600099 17.19250072948604 1.9999969538265756
vertex 997.3799026600096 30.69248016781503 2.023558886766205
endloop
endfacet
facet normal 7.076489788936248e-16 0.0017453283659000487 -0.9999984769132878
outer loop
vertex 997.3799026600099 17.19250072948604 1.9999969538265756
vertex 1018.5799026600097 30.69248016781552 2.0235588867662377
vertex 1018.5799026600097 17.192500729486206 1.999996953826574
endloop
endfacet
facet normal 7.076489788936248e-16 0.0017453283659000487 -0.9999984769132878
outer loop
vertex 1018.5799026600097 17.192500729486206 1.999996953826574
vertex 1018.5799026600097 30.69248016781552 2.0235588867662377
vertex 1020.3799026600099 28.892482909371644 2.0204172957076163
endloop
endfacet
facet normal 7.076489788936248e-16 0.0017453283659000487 -0.9999984769132878
outer loop
vertex 1018.5799026600097 17.192500729486206 1.999996953826574
vertex 1020.3799026600099 28.892482909371644 2.0204172957076163
vertex 1020.3799026600096 18.992497987930136 2.003138544885197
endloop
endfacet
facet normal 0.7071067811865138 0.7071057042016388 0.0012341335229274508
outer loop
vertex 1020.3799026600099 28.892482909371644 2.0204172957076163
vertex 1018.5799026600097 30.68113553343715 8.523548986702599
vertex 1020.3799026600099 28.881138274993273 8.520407395643975
endloop
endfacet
facet normal 0.7071067811865138 0.7071057042016388 0.0012341335229274508
outer loop
vertex 1018.5799026600097 30.68113553343715 8.523548986702599
vertex 1020.3799026600099 28.892482909371644 2.0204172957076163
vertex 1018.5799026600097 30.69248016781552 2.0235588867662377
endloop
endfacet
facet normal 3.23785184297278e-15 -0.001745328365892661 0.9999984769132878
outer loop
vertex 1009.6799026600099 19.439879309992083 3.503921658019866
vertex 1007.3799026600097 28.439865602211565 3.5196296133129077
vertex 1007.3799026600097 19.439879309992083 3.503921658019866
endloop
endfacet
facet normal 3.23785184297278e-15 -0.001745328365892661 0.9999984769132878
outer loop
vertex 1007.3799026600097 28.439865602211565 3.5196296133129077
vertex 1009.6799026600099 19.439879309992083 3.503921658019866
vertex 1009.6799026600096 28.439865602211615 3.5196296133128926
endloop
endfacet
facet normal 0.00042600599673719953 0.0014014595728755964 -0.9999989272144028
outer loop
vertex 1005.8307193330279 30.681135533436876 8.511768020232758
vertex 1007.3799026600097 28.43113896038209 8.519621997879327
vertex 1005.8307193330279 17.181156095107767 8.49998705376293
endloop
endfacet
facet normal 0.00042600599673719953 0.0014014595728755964 -0.9999989272144028
outer loop
vertex 1007.3799026600097 28.43113896038209 8.519621997879327
vertex 1005.8307193330279 30.681135533436876 8.511768020232758
vertex 1018.5799026600097 30.68113553343715 8.523548986702599
endloop
endfacet
facet normal 0.00042600599673719953 0.0014014595728755964 -0.9999989272144028
outer loop
vertex 1007.3799026600097 28.43113896038209 8.519621997879327
vertex 1018.5799026600097 30.68113553343715 8.523548986702599
vertex 1009.6799026600096 28.431138960382135 8.519621997879332
endloop
endfacet
facet normal 0.00042600599673719953 0.0014014595728755964 -0.9999989272144028
outer loop
vertex 1009.6799026600096 28.431138960382135 8.519621997879332
vertex 1018.5799026600097 30.68113553343715 8.523548986702599
vertex 1009.6799026600099 19.431152668162575 8.503914042586235
endloop
endfacet
facet normal 0.00042600599673719953 0.0014014595728755964 -0.9999989272144028
outer loop
vertex 1005.8307193330279 17.181156095107767 8.49998705376293
vertex 1007.3799026600097 19.431152668162575 8.503914042586235
vertex 1018.5799026600097 17.181156095107852 8.499987053762935
endloop
endfacet
facet normal 0.00042600599673719953 0.0014014595728755964 -0.9999989272144028
outer loop
vertex 1007.3799026600097 19.431152668162575 8.503914042586235
vertex 1005.8307193330279 17.181156095107767 8.49998705376293
vertex 1007.3799026600097 28.43113896038209 8.519621997879327
endloop
endfacet
facet normal 0.00042600599673719953 0.0014014595728755964 -0.9999989272144028
outer loop
vertex 1018.5799026600097 17.181156095107852 8.499987053762935
vertex 1007.3799026600097 19.431152668162575 8.503914042586235
vertex 1009.6799026600099 19.431152668162575 8.503914042586235
endloop
endfacet
facet normal 0.00042600599673719953 0.0014014595728755964 -0.9999989272144028
outer loop
vertex 1018.5799026600097 17.181156095107852 8.499987053762935
vertex 1009.6799026600099 19.431152668162575 8.503914042586235
vertex 1018.5799026600097 30.68113553343715 8.523548986702599
endloop
endfacet
facet normal 0.00042600599673719953 0.0014014595728755964 -0.9999989272144028
outer loop
vertex 1018.5799026600097 17.181156095107852 8.499987053762935
vertex 1018.5799026600097 30.68113553343715 8.523548986702599
vertex 1020.3799026600099 28.881138274993273 8.520407395643975
endloop
endfacet
facet normal 0.00042600599673719953 0.0014014595728755964 -0.9999989272144028
outer loop
vertex 1018.5799026600097 17.181156095107852 8.499987053762935
vertex 1020.3799026600099 28.881138274993273 8.520407395643975
vertex 1020.3799026600096 18.981153353551782 8.503128644821558
endloop
endfacet
facet normal 0.7071067811865138 0.7071057042016388 0.0012341335229274508
outer loop
vertex 1020.3799026600099 47.00496076517794 2.043979228647247
vertex 1018.5799026600097 48.793613389243454 8.547110919642227
vertex 1020.3799026600099 46.99361613079957 8.543969328583605
endloop
endfacet
facet normal 0.7071067811865138 0.7071057042016388 0.0012341335229274508
outer loop
vertex 1018.5799026600097 48.793613389243454 8.547110919642227
vertex 1020.3799026600099 47.00496076517794 2.043979228647247
vertex 1018.5799026600097 48.80495802362182 2.0471208197058686
endloop
endfacet
facet normal -4.909033644903594e-07 0.0017446915257055507 -0.9999984780244613
outer loop
vertex 1018.5799026600097 48.80495802362182 2.0471208197058686
vertex 997.3799026600096 35.29248016781503 2.023558886766205
vertex 997.3799026600096 48.80495802362133 2.047120819705836
endloop
endfacet
facet normal -4.909033644903594e-07 0.0017446915257055507 -0.9999984780244613
outer loop
vertex 997.3799026600096 35.29248016781503 2.023558886766205
vertex 1018.5799026600097 48.80495802362182 2.0471208197058686
vertex 1018.5799026600097 35.30497858529251 2.023558886766205
endloop
endfacet
facet normal -4.909033644903594e-07 0.0017446915257055507 -0.9999984780244613
outer loop
vertex 1018.5799026600097 35.30497858529251 2.023558886766205
vertex 1018.5799026600097 48.80495802362182 2.0471208197058686
vertex 1020.3799026600099 47.00496076517794 2.043979228647247
endloop
endfacet
facet normal -4.909033644903594e-07 0.0017446915257055507 -0.9999984780244613
outer loop
vertex 1018.5799026600097 35.30497858529251 2.023558886766205
vertex 1020.3799026600099 47.00496076517794 2.043979228647247
vertex 1020.3799026600096 37.10497584373643 2.026700477824828
endloop
endfacet
facet normal 1.0 0.0 0.0
outer loop
vertex 1007.3799026600097 37.552357165798384 3.5274835909594975
vertex 1007.3799026600097 46.54361681618839 8.543183930818955
vertex 1007.3799026600097 37.54363052396888 8.527475975525864
endloop
endfacet
facet normal 1.0 0.0 0.0
outer loop
vertex 1007.3799026600097 46.54361681618839 8.543183930818955
vertex 1007.3799026600097 37.552357165798384 3.5274835909594975
vertex 1007.3799026600097 46.552343458017866 3.5431915462525385
endloop
endfacet
facet normal 2.0839473752264133e-14 -0.9999984769132878 -0.0017453283658957898
outer loop
vertex 1009.6799026600096 46.54361681618843 8.543183930818962
vertex 1007.3799026600097 46.552343458017866 3.5431915462525385
vertex 1009.6799026600096 46.552343458017916 3.543191546252524
endloop
endfacet
facet normal 2.0839473752264133e-14 -0.9999984769132878 -0.0017453283658957898
outer loop
vertex 1007.3799026600097 46.552343458017866 3.5431915462525385
vertex 1009.6799026600096 46.54361681618843 8.543183930818962
vertex 1007.3799026600097 46.54361681618839 8.543183930818955
endloop
endfacet
facet normal 0.7071067811865592 -0.7071057042015934 -0.0012341335229255385
outer loop
vertex 1018.5799026600097 35.30497858529251 2.023558886766205
vertex 1020.3799026600096 37.09363120935808 8.526690577761187
vertex 1018.5799026600097 35.293633950914156 8.523548986702565
endloop
endfacet
facet normal 0.7071067811865592 -0.7071057042015934 -0.0012341335229255385
outer loop
vertex 1020.3799026600096 37.09363120935808 8.526690577761187
vertex 1018.5799026600097 35.30497858529251 2.023558886766205
vertex 1020.3799026600096 37.10497584373643 2.026700477824828
endloop
endfacet
facet normal 0.00030018672361945746 -0.9999997083801706 -0.0007022303787135674
outer loop
vertex 1018.5799026600097 35.293633950914156 8.523548986702565
vertex 997.3799026600096 35.29248016781503 2.023558886766205
vertex 1018.5799026600097 35.30497858529251 2.023558886766205
endloop
endfacet
facet normal 0.00030018672361945746 -0.9999997083801706 -0.0007022303787135674
outer loop
vertex 997.3799026600096 35.29248016781503 2.023558886766205
vertex 1018.5799026600097 35.293633950914156 8.523548986702565
vertex 1005.8307193330279 35.29363395091407 8.523548986702558
endloop
endfacet
facet normal 0.00030018672361945746 -0.9999997083801706 -0.0007022303787135674
outer loop
vertex 1005.8307193330279 35.29363395091407 8.523548986702558
vertex 997.3799288929212 35.29248016781503 9.723548431742591
vertex 997.3799026600096 35.29248016781503 2.023558886766205
endloop
endfacet
facet normal 0.00030018672361945746 -0.9999997083801706 -0.0007022303787135674
outer loop
vertex 997.3799288929212 35.29248016781503 9.723548431742591
vertex 1005.8307193330279 35.29363395091407 8.523548986702558
vertex 1005.8307455659393 35.292480167815086 9.723548431742596
endloop
endfacet
facet normal 3.23785184297278e-15 -0.001745328365892661 0.9999984769132878
outer loop
vertex 1009.6799026600099 37.552357165798384 3.5274835909594975
vertex 1007.3799026600097 46.552343458017866 3.5431915462525385
vertex 1007.3799026600097 37.552357165798384 3.5274835909594975
endloop
endfacet
facet normal 3.23785184297278e-15 -0.001745328365892661 0.9999984769132878
outer loop
vertex 1007.3799026600097 46.552343458017866 3.5431915462525385
vertex 1009.6799026600099 37.552357165798384 3.5274835909594975
vertex 1009.6799026600096 46.552343458017916 3.543191546252524
endloop
endfacet
facet normal -1.0 -4.0106128888809704e-14 -6.999847100978115e-17
outer loop
vertex 1009.6799026600096 46.54361681618843 8.543183930818962
vertex 1009.6799026600099 37.552357165798384 3.5274835909594975
vertex 1009.6799026600099 37.54363052396888 8.527475975525864
endloop
endfacet
facet normal -1.0 -4.0106128888809704e-14 -6.999847100978115e-17
outer loop
vertex 1009.6799026600099 37.552357165798384 3.5274835909594975
vertex 1009.6799026600096 46.54361681618843 8.543183930818962
vertex 1009.6799026600096 46.552343458017916 3.543191546252524
endloop
endfacet
facet normal 0.9999999997610536 1.9077123021045413e-08 -2.186075048987884e-05
outer loop
vertex 1005.8307193330279 35.29363395091407 8.523548986702558
vertex 1005.8307455659393 48.792459606144185 9.735329398212425
vertex 1005.8307455659393 35.292480167815086 9.723548431742596
endloop
endfacet
facet normal 0.9999999997610536 1.9077123021045413e-08 -2.186075048987884e-05
outer loop
vertex 1005.8307455659393 48.792459606144185 9.735329398212425
vertex 1005.8307193330279 35.29363395091407 8.523548986702558
vertex 1005.8307193330279 48.79361338924318 8.535329953172388
endloop
endfacet
facet normal 0.00042600599673719953 0.0014014595728755964 -0.9999989272144028
outer loop
vertex 1005.8307193330279 48.79361338924318 8.535329953172388
vertex 1007.3799026600097 46.54361681618839 8.543183930818955
vertex 1005.8307193330279 35.29363395091407 8.523548986702558
endloop
endfacet
facet normal 0.00042600599673719953 0.0014014595728755964 -0.9999989272144028
outer loop
vertex 1007.3799026600097 46.54361681618839 8.543183930818955
vertex 1005.8307193330279 48.79361338924318 8.535329953172388
vertex 1018.5799026600097 48.793613389243454 8.547110919642227
endloop
endfacet
facet normal 0.00042600599673719953 0.0014014595728755964 -0.9999989272144028
outer loop
vertex 1007.3799026600097 46.54361681618839 8.543183930818955
vertex 1018.5799026600097 48.793613389243454 8.547110919642227
vertex 1009.6799026600096 46.54361681618843 8.543183930818962
endloop
endfacet
facet normal 0.00042600599673719953 0.0014014595728755964 -0.9999989272144028
outer loop
vertex 1009.6799026600096 46.54361681618843 8.543183930818962
vertex 1018.5799026600097 48.793613389243454 8.547110919642227
vertex 1009.6799026600099 37.54363052396888 8.527475975525864
endloop
endfacet
facet normal 0.00042600599673719953 0.0014014595728755964 -0.9999989272144028
outer loop
vertex 1005.8307193330279 35.29363395091407 8.523548986702558
vertex 1007.3799026600097 37.54363052396888 8.527475975525864
vertex 1018.5799026600097 35.293633950914156 8.523548986702565
endloop
endfacet
facet normal 0.00042600599673719953 0.0014014595728755964 -0.9999989272144028
outer loop
vertex 1007.3799026600097 37.54363052396888 8.527475975525864
vertex 1005.8307193330279 35.29363395091407 8.523548986702558
vertex 1007.3799026600097 46.54361681618839 8.543183930818955
endloop
endfacet
facet normal 0.00042600599673719953 0.0014014595728755964 -0.9999989272144028
outer loop
vertex 1018.5799026600097 35.293633950914156 8.523548986702565
vertex 1007.3799026600097 37.54363052396888 8.527475975525864
vertex 1009.6799026600099 37.54363052396888 8.527475975525864
endloop
endfacet
facet normal 0.00042600599673719953 0.0014014595728755964 -0.9999989272144028
outer loop
vertex 1018.5799026600097 35.293633950914156 8.523548986702565
vertex 1009.6799026600099 37.54363052396888 8.527475975525864
vertex 1018.5799026600097 48.793613389243454 8.547110919642227
endloop
endfacet
facet normal 0.00042600599673719953 0.0014014595728755964 -0.9999989272144028
outer loop
vertex 1018.5799026600097 35.293633950914156 8.523548986702565
vertex 1018.5799026600097 48.793613389243454 8.547110919642227
vertex 1020.3799026600099 46.99361613079957 8.543969328583605
endloop
endfacet
facet normal 0.00042600599673719953 0.0014014595728755964 -0.9999989272144028
outer loop
vertex 1018.5799026600097 35.293633950914156 8.523548986702565
vertex 1020.3799026600099 46.99361613079957 8.543969328583605
vertex 1020.3799026600096 37.09363120935808 8.526690577761187
endloop
endfacet
facet normal 1.0 -1.8230058585822592e-14 -3.1817486822682444e-17
outer loop
vertex 1020.3799026600096 37.10497584373643 2.026700477824828
vertex 1020.3799026600099 46.99361613079957 8.543969328583605
vertex 1020.3799026600096 37.09363120935808 8.526690577761187
endloop
endfacet
facet normal 1.0 -1.8230058585822592e-14 -3.1817486822682444e-17
outer loop
vertex 1020.3799026600099 46.99361613079957 8.543969328583605
vertex 1020.3799026600096 37.10497584373643 2.026700477824828
vertex 1020.3799026600099 47.00496076517794 2.043979228647247
endloop
endfacet
facet normal 0.0 0.9999984769132878 0.0017453283658997493
outer loop
vertex 1007.3799026600097 37.54363052396888 8.527475975525864
vertex 1009.6799026600099 37.552357165798384 3.5274835909594975
vertex 1007.3799026600097 37.552357165798384 3.5274835909594975
endloop
endfacet
facet normal 0.0 0.9999984769132878 0.0017453283658997493
outer loop
vertex 1009.6799026600099 37.552357165798384 3.5274835909594975
vertex 1007.3799026600097 37.54363052396888 8.527475975525864
vertex 1009.6799026600099 37.54363052396888 8.527475975525864
endloop
endfacet
facet normal 2.186075872761974e-05 -0.0009614859158287321 0.9999995375333637
outer loop
vertex 997.3799288929212 35.29248016781503 9.723548431742591
vertex 1005.8307455659393 48.792459606144185 9.735329398212425
vertex 997.379928892921 48.792459606144 9.747110364682248
endloop
endfacet
facet normal 2.186075872761974e-05 -0.0009614859158287321 0.9999995375333637
outer loop
vertex 1005.8307455659393 48.792459606144185 9.735329398212425
vertex 997.3799288929212 35.29248016781503 9.723548431742591
vertex 1005.8307455659393 35.292480167815086 9.723548431742596
endloop
endfacet
facet normal -2.2481876207729075e-14 0.9999984769132878 0.0017453283659010362
outer loop
vertex 997.379928892921 48.792459606144 9.747110364682248
vertex 1018.5799026600097 48.80495802362182 2.0471208197058686
vertex 997.3799026600096 48.80495802362133 2.047120819705836
endloop
endfacet
facet normal -2.2481876207729075e-14 0.9999984769132878 0.0017453283659010362
outer loop
vertex 1018.5799026600097 48.80495802362182 2.0471208197058686
vertex 997.379928892921 48.792459606144 9.747110364682248
vertex 1005.8307193330279 48.79361338924318 8.535329953172388
endloop
endfacet
facet normal -2.2481876207729075e-14 0.9999984769132878 0.0017453283659010362
outer loop
vertex 1005.8307193330279 48.79361338924318 8.535329953172388
vertex 997.379928892921 48.792459606144 9.747110364682248
vertex 1005.8307455659393 48.792459606144185 9.735329398212425
endloop
endfacet
facet normal -2.2481876207729075e-14 0.9999984769132878 0.0017453283659010362
outer loop
vertex 1018.5799026600097 48.793613389243454 8.547110919642227
vertex 1018.5799026600097 48.80495802362182 2.0471208197058686
vertex 1005.8307193330279 48.79361338924318 8.535329953172388
endloop
endfacet
facet normal -0.9999999999941966 -5.943372577213813e-09 3.406871420776989e-06
outer loop
vertex 997.379928892921 48.792459606144 9.747110364682248
vertex 997.3799026600096 35.29248016781503 2.023558886766205
vertex 997.3799288929212 35.29248016781503 9.723548431742591
endloop
endfacet
facet normal -0.9999999999941966 -5.943372577213813e-09 3.406871420776989e-06
outer loop
vertex 997.3799026600096 35.29248016781503 2.023558886766205
vertex 997.379928892921 48.792459606144 9.747110364682248
vertex 997.3799026600096 48.80495802362133 2.047120819705836
endloop
endfacet
endsolid robot_beetle
