solid robot_beetle
facet normal -1.0 0.0 8.881784197001264e-16
outer loop
vertex 1022.5789848837097 75.97208978416953 15.435199088069668
vertex 1022.5789848837097 74.73546984245007 12.13519908808238
vertex 1022.5789848837097 74.73546984245007 15.435199088069668
endloop
endfacet
facet normal -1.0 0.0 8.881784197001264e-16
outer loop
vertex 1022.5789848837097 74.73546984245007 12.13519908808238
vertex 1022.5789848837097 75.97208978416953 15.435199088069668
vertex 1022.5789848837097 75.97208978416953 12.13519908808238
endloop
endfacet
facet normal 0.0 1.0 0.0
outer loop
vertex 1024.705347630271 74.73546984245007 15.435199088069666
vertex 1025.9582161426533 74.73546984245007 12.135199088082379
vertex 1024.705347630271 74.73546984245007 12.135199088082379
endloop
endfacet
facet normal 0.0 1.0 0.0
outer loop
vertex 1025.9582161426533 74.73546984245007 12.135199088082379
vertex 1024.705347630271 74.73546984245007 15.435199088069666
vertex 1025.9582161426533 74.73546984245007 15.435199088069663
endloop
endfacet
facet normal -0.2588190451024983 -0.9659258262890743 2.088419458146086e-16
outer loop
vertex 1021.4537719139424 73.05787351919983 15.435199088069671
vertex 1021.1369478036298 73.0995842046184 13.33519908806967
vertex 1021.4537719139424 73.05787351919983 13.33519908806967
endloop
endfacet
facet normal -1.5621175647069043e-14 -1.0 -2.3996655678346534e-17
outer loop
vertex 1021.1369478036298 73.0995842046184 13.33519908806967
vertex 1021.4537719139424 73.05787351919983 15.435199088069671
vertex 1021.1369478036298 73.0995842046184 15.435199088069668
endloop
endfacet
facet normal -0.49999999999985895 -0.8660254037845201 4.274483138278565e-16
outer loop
vertex 1021.749004984714 72.93558397722522 15.435199088069668
vertex 1021.4537719139424 73.05787351919983 13.33519908806967
vertex 1021.749004984714 72.93558397722522 13.33519908806967
endloop
endfacet
facet normal -0.25881904510249854 -0.9659258262890743 2.0884194581460874e-16
outer loop
vertex 1021.4537719139424 73.05787351919983 13.33519908806967
vertex 1021.749004984714 72.93558397722522 15.435199088069668
vertex 1021.4537719139424 73.05787351919983 15.435199088069671
endloop
endfacet
facet normal -0.7071067811865323 -0.7071067811865628 6.169247856456878e-16
outer loop
vertex 1022.0025273700669 72.74104940888726 15.435199088069668
vertex 1021.749004984714 72.93558397722522 13.33519908806967
vertex 1022.0025273700669 72.74104940888726 13.33519908806967
endloop
endfacet
facet normal -0.49999999999985945 -0.8660254037845199 4.274483138278569e-16
outer loop
vertex 1021.749004984714 72.93558397722522 13.33519908806967
vertex 1022.0025273700669 72.74104940888726 15.435199088069668
vertex 1021.749004984714 72.93558397722522 15.435199088069668
endloop
endfacet
facet normal -0.7071067811865323 -0.7071067811865628 6.169247856456878e-16
outer loop
vertex 1022.0025273700669 72.74104940888726 15.435199088069668
vertex 1022.1970619384052 72.48752702353394 13.33519908806967
vertex 1022.1970619384052 72.48752702353394 15.435199088069668
endloop
endfacet
facet normal -0.8660254037845717 -0.4999999999997695 7.643588528382015e-16
outer loop
vertex 1022.1970619384052 72.48752702353394 13.33519908806967
vertex 1022.0025273700669 72.74104940888726 15.435199088069668
vertex 1022.0025273700669 72.74104940888726 13.33519908806967
endloop
endfacet
facet normal -0.8660254037845718 -0.49999999999976924 7.643588528382016e-16
outer loop
vertex 1022.1970619384052 72.48752702353394 15.435199088069668
vertex 1022.3193514803795 72.19229395276295 13.335199088069672
vertex 1022.3193514803795 72.19229395276295 15.435199088069668
endloop
endfacet
facet normal -0.965925826289074 -0.2588190451024998 8.59703127372271e-16
outer loop
vertex 1022.3193514803795 72.19229395276295 13.335199088069672
vertex 1022.1970619384052 72.48752702353394 15.435199088069668
vertex 1022.1970619384052 72.48752702353394 13.33519908806967
endloop
endfacet
facet normal -0.965925826289074 -0.2588190451024995 8.597031273722711e-16
outer loop
vertex 1022.3193514803795 72.19229395276295 15.435199088069668
vertex 1022.3610621657982 71.8754698424501 13.335199088069672
vertex 1022.3610621657982 71.8754698424501 15.435199088069668
endloop
endfacet
facet normal -1.0 -4.615954925945262e-15 8.964600545026265e-16
outer loop
vertex 1022.3610621657982 71.8754698424501 13.335199088069672
vertex 1022.3193514803795 72.19229395276295 15.435199088069668
vertex 1022.3193514803795 72.19229395276295 13.335199088069672
endloop
endfacet
facet normal -1.0 -4.615954925945262e-15 8.964600545026265e-16
outer loop
vertex 1022.3610621657982 71.8754698424501 15.435199088069668
vertex 1022.3193514803795 71.55864573213722 13.335199088069672
vertex 1022.3193514803795 71.55864573213722 15.435199088069668
endloop
endfacet
facet normal -0.9659258262890856 0.2588190451024562 8.721247103889339e-16
outer loop
vertex 1022.3193514803795 71.55864573213722 13.335199088069672
vertex 1022.3610621657982 71.8754698424501 15.435199088069668
vertex 1022.3610621657982 71.8754698424501 13.335199088069672
endloop
endfacet
facet normal -0.9659258262890856 0.25881904510245585 8.72124710388934e-16
outer loop
vertex 1022.3193514803795 71.55864573213722 15.435199088069668
vertex 1022.1970619384052 71.26341266136616 13.33519908806967
vertex 1022.1970619384052 71.26341266136616 15.435199088069668
endloop
endfacet
facet normal -0.86602540378449 0.49999999999991135 7.883555085164812e-16
outer loop
vertex 1022.1970619384052 71.26341266136616 13.33519908806967
vertex 1022.3193514803795 71.55864573213722 15.435199088069668
vertex 1022.3193514803795 71.55864573213722 13.335199088069672
endloop
endfacet
facet normal -0.8660254037844901 0.4999999999999109 7.883555085164812e-16
outer loop
vertex 1022.1970619384052 71.26341266136616 15.435199088069668
vertex 1022.0025273700669 71.00989027601305 13.33519908806967
vertex 1022.0025273700669 71.00989027601305 15.435199088069668
endloop
endfacet
facet normal -0.7071067811865266 0.7071067811865684 6.508611815576183e-16
outer loop
vertex 1022.0025273700669 71.00989027601305 13.33519908806967
vertex 1022.1970619384052 71.26341266136616 15.435199088069668
vertex 1022.1970619384052 71.26341266136616 13.33519908806967
endloop
endfacet
facet normal -0.5000000000000147 0.8660254037844304 4.690117406746545e-16
outer loop
vertex 1021.749004984714 70.81535570767494 15.435199088069668
vertex 1022.0025273700669 71.00989027601305 13.33519908806967
vertex 1021.749004984714 70.81535570767494 13.33519908806967
endloop
endfacet
facet normal -0.7071067811865266 0.7071067811865684 6.508611815576183e-16
outer loop
vertex 1022.0025273700669 71.00989027601305 13.33519908806967
vertex 1021.749004984714 70.81535570767494 15.435199088069668
vertex 1022.0025273700669 71.00989027601305 15.435199088069668
endloop
endfacet
facet normal -0.2588190451024656 0.9659258262890831 2.551999247431692e-16
outer loop
vertex 1021.4537719139424 70.69306616570034 15.435199088069671
vertex 1021.749004984714 70.81535570767494 13.33519908806967
vertex 1021.4537719139424 70.69306616570034 13.33519908806967
endloop
endfacet
facet normal -0.5000000000000151 0.86602540378443 4.69011740674655e-16
outer loop
vertex 1021.749004984714 70.81535570767494 13.33519908806967
vertex 1021.4537719139424 70.69306616570034 15.435199088069671
vertex 1021.749004984714 70.81535570767494 15.435199088069668
endloop
endfacet
facet normal -1.0 0.0 8.881784197001264e-16
outer loop
vertex 1016.3156794646067 74.73546984245007 15.435199088069673
vertex 1016.3156794646067 71.38769858202377 12.135199088082384
vertex 1016.3156794646067 71.38769858202377 15.435199088069673
endloop
endfacet
facet normal -1.0 0.0 8.881784197001264e-16
outer loop
vertex 1016.3156794646067 71.38769858202377 12.135199088082384
vertex 1016.3156794646067 74.73546984245007 15.435199088069673
vertex 1016.3156794646067 74.73546984245007 12.135199088082384
endloop
endfacet
facet normal 1.712715321943332e-14 1.0 2.3996655678345196e-17
outer loop
vertex 1021.1369478036298 70.6513554802818 15.435199088069668
vertex 1021.4537719139424 70.69306616570034 13.33519908806967
vertex 1021.1369478036298 70.6513554802818 13.33519908806967
endloop
endfacet
facet normal -0.25881904510246584 0.9659258262890831 2.551999247431693e-16
outer loop
vertex 1021.4537719139424 70.69306616570034 13.33519908806967
vertex 1021.1369478036298 70.6513554802818 15.435199088069668
vertex 1021.4537719139424 70.69306616570034 15.435199088069671
endloop
endfacet
facet normal 0.2588190451024099 0.9659258262890982 -2.088419458145287e-16
outer loop
vertex 1020.8201236933172 70.69306616570036 15.435199088069668
vertex 1021.1369478036298 70.6513554802818 13.33519908806967
vertex 1020.8201236933172 70.69306616570036 13.33519908806967
endloop
endfacet
facet normal 1.750141983505054e-14 1.0 2.399665567834486e-17
outer loop
vertex 1021.1369478036298 70.6513554802818 13.33519908806967
vertex 1020.8201236933172 70.69306616570036 15.435199088069668
vertex 1021.1369478036298 70.6513554802818 15.435199088069668
endloop
endfacet
facet normal 0.5000000000001659 0.8660254037843429 -4.2744831382813596e-16
outer loop
vertex 1020.5248906225455 70.81535570767497 15.435199088069668
vertex 1020.8201236933172 70.69306616570036 13.33519908806967
vertex 1020.5248906225455 70.81535570767497 13.33519908806967
endloop
endfacet
facet normal 0.2588190451024099 0.9659258262890982 -2.088419458145287e-16
outer loop
vertex 1020.8201236933172 70.69306616570036 13.33519908806967
vertex 1020.5248906225455 70.81535570767497 15.435199088069668
vertex 1020.8201236933172 70.69306616570036 15.435199088069668
endloop
endfacet
facet normal 0.7071067811867574 0.7071067811863376 -6.16924785645895e-16
outer loop
vertex 1020.2713682371932 71.00989027601287 15.435199088069668
vertex 1020.5248906225455 70.81535570767497 13.33519908806967
vertex 1020.2713682371932 71.00989027601287 13.33519908806967
endloop
endfacet
facet normal 0.5000000000001659 0.8660254037843429 -4.2744831382813596e-16
outer loop
vertex 1020.5248906225455 70.81535570767497 13.33519908806967
vertex 1020.2713682371932 71.00989027601287 15.435199088069668
vertex 1020.5248906225455 70.81535570767497 15.435199088069668
endloop
endfacet
facet normal 0.8660254037842766 0.500000000000281 -7.643588528379249e-16
outer loop
vertex 1020.0768336688546 71.2634126613663 13.33519908806967
vertex 1020.2713682371932 71.00989027601287 15.435199088069668
vertex 1020.2713682371932 71.00989027601287 13.33519908806967
endloop
endfacet
facet normal 0.7071067811867574 0.7071067811863376 -6.16924785645895e-16
outer loop
vertex 1020.2713682371932 71.00989027601287 15.435199088069668
vertex 1020.0768336688546 71.2634126613663 13.33519908806967
vertex 1020.0768336688546 71.2634126613663 15.435199088069668
endloop
endfacet
facet normal 0.9659258262889695 0.2588190451028894 -8.597031273721682e-16
outer loop
vertex 1019.9545441268803 71.55864573213695 13.33519908806967
vertex 1020.0768336688546 71.2634126613663 15.435199088069668
vertex 1020.0768336688546 71.2634126613663 13.33519908806967
endloop
endfacet
facet normal 0.8660254037842766 0.5000000000002808 -7.643588528379248e-16
outer loop
vertex 1020.0768336688546 71.2634126613663 15.435199088069668
vertex 1019.9545441268803 71.55864573213695 13.33519908806967
vertex 1019.9545441268803 71.55864573213695 15.435199088069668
endloop
endfacet
facet normal 1.0 -2.3079774629725972e-15 -8.96460054502627e-16
outer loop
vertex 1019.9128334414615 71.8754698424501 13.33519908806967
vertex 1019.9545441268803 71.55864573213695 15.435199088069668
vertex 1019.9545441268803 71.55864573213695 13.33519908806967
endloop
endfacet
facet normal 0.9659258262889698 0.2588190451028888 -8.597031273721684e-16
outer loop
vertex 1019.9545441268803 71.55864573213695 15.435199088069668
vertex 1019.9128334414615 71.8754698424501 13.33519908806967
vertex 1019.9128334414615 71.8754698424501 15.435199088069673
endloop
endfacet
facet normal 0.965925826288969 -0.2588190451028916 -8.721247103888399e-16
outer loop
vertex 1019.9545441268803 72.19229395276324 13.33519908806967
vertex 1019.9128334414615 71.8754698424501 15.435199088069673
vertex 1019.9128334414615 71.8754698424501 13.33519908806967
endloop
endfacet
facet normal 1.0 -2.3079774629726095e-15 -8.964600545026265e-16
outer loop
vertex 1019.9128334414615 71.8754698424501 15.435199088069673
vertex 1019.9545441268803 72.19229395276324 13.33519908806967
vertex 1019.9545441268803 72.19229395276324 15.435199088069668
endloop
endfacet
facet normal 0.8660254037843294 -0.5000000000001893 -7.88355508516344e-16
outer loop
vertex 1020.0768336688546 72.48752702353389 13.33519908806967
vertex 1019.9545441268803 72.19229395276324 15.435199088069668
vertex 1019.9545441268803 72.19229395276324 13.33519908806967
endloop
endfacet
facet normal 0.9659258262889691 -0.258819045102891 -8.721247103888398e-16
outer loop
vertex 1019.9545441268803 72.19229395276324 15.435199088069668
vertex 1020.0768336688546 72.48752702353389 13.33519908806967
vertex 1020.0768336688546 72.48752702353389 15.435199088069668
endloop
endfacet
facet normal -1.0 0.0 8.881784197001264e-16
outer loop
vertex 1018.8210707751017 70.15073292603495 15.435199088069668
vertex 1018.8210707751017 68.91411298431548 12.135199088082384
vertex 1018.8210707751017 68.91411298431548 15.435199088069668
endloop
endfacet
facet normal -1.0 0.0 8.881784197001264e-16
outer loop
vertex 1018.8210707751017 68.91411298431548 12.135199088082384
vertex 1018.8210707751017 70.15073292603495 15.435199088069668
vertex 1018.8210707751017 70.15073292603495 12.135199088082384
endloop
endfacet
facet normal -8.881784197001264e-16 0.0 -1.0
outer loop
vertex 1017.568547976989 74.73546984245007 12.135199088082384
vertex 1016.3156794646067 71.38769858202377 12.135199088082384
vertex 1016.3156794646067 74.73546984245007 12.135199088082384
endloop
endfacet
facet normal -8.881784197001264e-16 0.0 -1.0
outer loop
vertex 1016.3156794646067 71.38769858202377 12.135199088082384
vertex 1017.568547976989 74.73546984245007 12.135199088082384
vertex 1017.568547976989 71.38769858202377 12.135199088082384
endloop
endfacet
facet normal -8.881784197001264e-16 0.0 -1.0
outer loop
vertex 1025.9582161426533 74.73546984245007 12.135199088082379
vertex 1024.705347630271 71.38769858202377 12.135199088082379
vertex 1024.705347630271 74.73546984245007 12.135199088082379
endloop
endfacet
facet normal -8.881784197001264e-16 0.0 -1.0
outer loop
vertex 1024.705347630271 71.38769858202377 12.135199088082379
vertex 1025.9582161426533 74.73546984245007 12.135199088082379
vertex 1025.9582161426533 71.38769858202377 12.135199088082379
endloop
endfacet
facet normal -8.881784197001264e-16 0.0 -1.0
outer loop
vertex 1024.705347630271 75.97208978416953 12.135199088082379
vertex 1022.5789848837097 74.73546984245007 12.13519908808238
vertex 1022.5789848837097 75.97208978416953 12.13519908808238
endloop
endfacet
facet normal -8.881784197001264e-16 0.0 -1.0
outer loop
vertex 1022.5789848837097 74.73546984245007 12.13519908808238
vertex 1024.705347630271 75.97208978416953 12.135199088082379
vertex 1023.4528248321582 70.15073292603495 12.135199088082379
endloop
endfacet
facet normal -8.881784197001264e-16 0.0 -1.0
outer loop
vertex 1023.4528248321582 70.15073292603495 12.135199088082379
vertex 1024.705347630271 75.97208978416953 12.135199088082379
vertex 1024.705347630271 70.15073292603495 12.135199088082379
endloop
endfacet
facet normal -8.881784197001264e-16 0.0 -1.0
outer loop
vertex 1024.705347630271 70.15073292603495 12.135199088082379
vertex 1024.705347630271 75.97208978416953 12.135199088082379
vertex 1024.705347630271 74.73546984245007 12.135199088082379
endloop
endfacet
facet normal -8.881784197001264e-16 0.0 -1.0
outer loop
vertex 1024.705347630271 70.15073292603495 12.135199088082379
vertex 1024.705347630271 74.73546984245007 12.135199088082379
vertex 1024.705347630271 71.38769858202377 12.135199088082379
endloop
endfacet
facet normal -8.881784197001264e-16 0.0 -1.0
outer loop
vertex 1019.6949107235502 75.97208978416953 12.13519908808238
vertex 1017.568547976989 74.73546984245007 12.135199088082384
vertex 1017.568547976989 75.97208978416953 12.135199088082384
endloop
endfacet
facet normal -8.881784197001264e-16 0.0 -1.0
outer loop
vertex 1017.568547976989 74.73546984245007 12.135199088082384
vertex 1019.6949107235502 75.97208978416953 12.13519908808238
vertex 1017.568547976989 71.38769858202377 12.135199088082384
endloop
endfacet
facet normal -8.881784197001264e-16 0.0 -1.0
outer loop
vertex 1017.568547976989 71.38769858202377 12.135199088082384
vertex 1019.6949107235502 75.97208978416953 12.13519908808238
vertex 1017.568547976989 70.15073292603495 12.135199088082384
endloop
endfacet
facet normal -8.881784197001264e-16 0.0 -1.0
outer loop
vertex 1017.568547976989 70.15073292603495 12.135199088082384
vertex 1019.6949107235502 75.97208978416953 12.13519908808238
vertex 1018.8210707751017 70.15073292603495 12.135199088082384
endloop
endfacet
facet normal -8.881784197001264e-16 0.0 -1.0
outer loop
vertex 1018.8210707751017 70.15073292603495 12.135199088082384
vertex 1019.6949107235502 75.97208978416953 12.13519908808238
vertex 1018.8210707751017 68.91411298431548 12.135199088082384
endloop
endfacet
facet normal -8.881784197001264e-16 0.0 -1.0
outer loop
vertex 1018.8210707751017 68.91411298431548 12.135199088082384
vertex 1019.6949107235502 75.97208978416953 12.13519908808238
vertex 1019.6949107235502 74.73546984245007 12.13519908808238
endloop
endfacet
facet normal -8.881784197001264e-16 0.0 -1.0
outer loop
vertex 1018.8210707751017 68.91411298431548 12.135199088082384
vertex 1019.6949107235502 74.73546984245007 12.13519908808238
vertex 1020.073939287484 68.91411298431548 12.13519908808238
endloop
endfacet
facet normal -8.881784197001264e-16 0.0 -1.0
outer loop
vertex 1020.073939287484 68.91411298431548 12.13519908808238
vertex 1019.6949107235502 74.73546984245007 12.13519908808238
vertex 1022.5789848837097 74.73546984245007 12.13519908808238
endloop
endfacet
facet normal -8.881784197001264e-16 0.0 -1.0
outer loop
vertex 1020.073939287484 68.91411298431548 12.13519908808238
vertex 1022.5789848837097 74.73546984245007 12.13519908808238
vertex 1020.073939287484 67.67714732832658 12.13519908808238
endloop
endfacet
facet normal -8.881784197001264e-16 0.0 -1.0
outer loop
vertex 1020.073939287484 67.67714732832658 12.13519908808238
vertex 1022.5789848837097 74.73546984245007 12.13519908808238
vertex 1022.1999563197759 68.91411298431548 12.13519908808238
endloop
endfacet
facet normal -8.881784197001264e-16 0.0 -1.0
outer loop
vertex 1022.1999563197759 68.91411298431548 12.13519908808238
vertex 1022.5789848837097 74.73546984245007 12.13519908808238
vertex 1023.4528248321582 68.91411298431548 12.135199088082379
endloop
endfacet
facet normal -8.881784197001264e-16 0.0 -1.0
outer loop
vertex 1023.4528248321582 68.91411298431548 12.135199088082379
vertex 1022.5789848837097 74.73546984245007 12.13519908808238
vertex 1023.4528248321582 70.15073292603495 12.135199088082379
endloop
endfacet
facet normal -8.881784197001264e-16 0.0 -1.0
outer loop
vertex 1022.1999563197759 67.67714732832658 12.13519908808238
vertex 1020.073939287484 67.67714732832658 12.13519908808238
vertex 1022.1999563197759 68.91411298431548 12.13519908808238
endloop
endfacet
facet normal 0.0 -1.0 0.0
outer loop
vertex 1023.4528248321582 68.91411298431548 15.435199088069668
vertex 1022.1999563197759 68.91411298431548 12.13519908808238
vertex 1023.4528248321582 68.91411298431548 12.135199088082379
endloop
endfacet
facet normal 0.0 -1.0 0.0
outer loop
vertex 1022.1999563197759 68.91411298431548 12.13519908808238
vertex 1023.4528248321582 68.91411298431548 15.435199088069668
vertex 1022.1999563197759 68.91411298431548 15.435199088069668
endloop
endfacet
facet normal 0.0 -1.0 0.0
outer loop
vertex 1018.8210707751017 70.15073292603495 15.435199088069668
vertex 1017.568547976989 70.15073292603495 12.135199088082384
vertex 1018.8210707751017 70.15073292603495 12.135199088082384
endloop
endfacet
facet normal 0.0 -1.0 0.0
outer loop
vertex 1017.568547976989 70.15073292603495 12.135199088082384
vertex 1018.8210707751017 70.15073292603495 15.435199088069668
vertex 1017.568547976989 70.15073292603495 15.435199088069671
endloop
endfacet
facet normal 0.0 -1.0 0.0
outer loop
vertex 1025.9582161426533 71.38769858202377 15.435199088069663
vertex 1024.705347630271 71.38769858202377 12.135199088082379
vertex 1025.9582161426533 71.38769858202377 12.135199088082379
endloop
endfacet
facet normal 0.0 -1.0 0.0
outer loop
vertex 1024.705347630271 71.38769858202377 12.135199088082379
vertex 1025.9582161426533 71.38769858202377 15.435199088069663
vertex 1024.705347630271 71.38769858202377 15.435199088069666
endloop
endfacet
facet normal 0.7071067811865073 -0.7071067811865879 -6.508611815576015e-16
outer loop
vertex 1020.271368237193 72.74104940888719 13.33519908806967
vertex 1020.0768336688546 72.48752702353389 15.435199088069668
vertex 1020.0768336688546 72.48752702353389 13.33519908806967
endloop
endfacet
facet normal 0.8660254037843296 -0.5000000000001892 -7.883555085163441e-16
outer loop
vertex 1020.0768336688546 72.48752702353389 15.435199088069668
vertex 1020.271368237193 72.74104940888719 13.33519908806967
vertex 1020.271368237193 72.74104940888719 15.435199088069668
endloop
endfacet
facet normal 0.0 1.0 0.0
outer loop
vertex 1016.3156794646067 74.73546984245007 15.435199088069673
vertex 1017.568547976989 74.73546984245007 12.135199088082384
vertex 1016.3156794646067 74.73546984245007 12.135199088082384
endloop
endfacet
facet normal 0.0 1.0 0.0
outer loop
vertex 1017.568547976989 74.73546984245007 12.135199088082384
vertex 1016.3156794646067 74.73546984245007 15.435199088069673
vertex 1017.568547976989 74.73546984245007 15.435199088069671
endloop
endfacet
facet normal 1.0 0.0 -8.881784197001264e-16
outer loop
vertex 1022.1999563197759 68.91411298431548 12.13519908808238
vertex 1022.1999563197759 67.67714732832658 15.435199088069668
vertex 1022.1999563197759 67.67714732832658 12.13519908808238
endloop
endfacet
facet normal 1.0 0.0 -8.881784197001264e-16
outer loop
vertex 1022.1999563197759 67.67714732832658 15.435199088069668
vertex 1022.1999563197759 68.91411298431548 12.13519908808238
vertex 1022.1999563197759 68.91411298431548 15.435199088069668
endloop
endfacet
facet normal 0.0 -1.0 0.0
outer loop
vertex 1020.073939287484 68.91411298431548 15.435199088069668
vertex 1018.8210707751017 68.91411298431548 12.135199088082384
vertex 1020.073939287484 68.91411298431548 12.13519908808238
endloop
endfacet
facet normal 0.0 -1.0 0.0
outer loop
vertex 1018.8210707751017 68.91411298431548 12.135199088082384
vertex 1020.073939287484 68.91411298431548 15.435199088069668
vertex 1018.8210707751017 68.91411298431548 15.435199088069668
endloop
endfacet
facet normal 8.881784197001264e-16 0.0 1.0
outer loop
vertex 1025.9582161426533 71.38769858202377 15.435199088069663
vertex 1024.705347630271 74.73546984245007 15.435199088069666
vertex 1024.705347630271 71.38769858202377 15.435199088069666
endloop
endfacet
facet normal 8.881784197001264e-16 0.0 1.0
outer loop
vertex 1024.705347630271 74.73546984245007 15.435199088069666
vertex 1025.9582161426533 71.38769858202377 15.435199088069663
vertex 1025.9582161426533 74.73546984245007 15.435199088069663
endloop
endfacet
facet normal 8.881784197001264e-16 0.0 1.0
outer loop
vertex 1022.1999563197759 67.67714732832658 15.435199088069668
vertex 1020.073939287484 68.91411298431548 15.435199088069668
vertex 1020.073939287484 67.67714732832658 15.435199088069668
endloop
endfacet
facet normal 8.881784197001264e-16 0.0 1.0
outer loop
vertex 1020.073939287484 68.91411298431548 15.435199088069668
vertex 1022.1999563197759 67.67714732832658 15.435199088069668
vertex 1020.0768336688546 71.2634126613663 15.435199088069668
endloop
endfacet
facet normal 8.881784197001264e-16 0.0 1.0
outer loop
vertex 1020.0768336688546 71.2634126613663 15.435199088069668
vertex 1022.1999563197759 67.67714732832658 15.435199088069668
vertex 1020.2713682371932 71.00989027601287 15.435199088069668
endloop
endfacet
facet normal 8.881784197001264e-16 0.0 1.0
outer loop
vertex 1020.2713682371932 71.00989027601287 15.435199088069668
vertex 1022.1999563197759 67.67714732832658 15.435199088069668
vertex 1020.5248906225455 70.81535570767497 15.435199088069668
endloop
endfacet
facet normal 8.881784197001264e-16 0.0 1.0
outer loop
vertex 1020.5248906225455 70.81535570767497 15.435199088069668
vertex 1022.1999563197759 67.67714732832658 15.435199088069668
vertex 1020.8201236933172 70.69306616570036 15.435199088069668
endloop
endfacet
facet normal 8.881784197001264e-16 0.0 1.0
outer loop
vertex 1020.8201236933172 70.69306616570036 15.435199088069668
vertex 1022.1999563197759 67.67714732832658 15.435199088069668
vertex 1021.1369478036298 70.6513554802818 15.435199088069668
endloop
endfacet
facet normal 8.881784197001264e-16 0.0 1.0
outer loop
vertex 1021.1369478036298 70.6513554802818 15.435199088069668
vertex 1022.1999563197759 67.67714732832658 15.435199088069668
vertex 1021.4537719139424 70.69306616570034 15.435199088069671
endloop
endfacet
facet normal 8.881784197001264e-16 0.0 1.0
outer loop
vertex 1021.4537719139424 70.69306616570034 15.435199088069671
vertex 1022.1999563197759 67.67714732832658 15.435199088069668
vertex 1021.749004984714 70.81535570767494 15.435199088069668
endloop
endfacet
facet normal 8.881784197001264e-16 0.0 1.0
outer loop
vertex 1021.749004984714 70.81535570767494 15.435199088069668
vertex 1022.1999563197759 67.67714732832658 15.435199088069668
vertex 1022.0025273700669 71.00989027601305 15.435199088069668
endloop
endfacet
facet normal 8.881784197001264e-16 0.0 1.0
outer loop
vertex 1022.0025273700669 71.00989027601305 15.435199088069668
vertex 1022.1999563197759 67.67714732832658 15.435199088069668
vertex 1022.1970619384052 71.26341266136616 15.435199088069668
endloop
endfacet
facet normal 8.881784197001264e-16 0.0 1.0
outer loop
vertex 1022.1970619384052 71.26341266136616 15.435199088069668
vertex 1022.1999563197759 67.67714732832658 15.435199088069668
vertex 1022.1999563197759 68.91411298431548 15.435199088069668
endloop
endfacet
facet normal 8.881784197001264e-16 0.0 1.0
outer loop
vertex 1022.1970619384052 71.26341266136616 15.435199088069668
vertex 1022.1999563197759 68.91411298431548 15.435199088069668
vertex 1022.3193514803795 71.55864573213722 15.435199088069668
endloop
endfacet
facet normal 8.881784197001264e-16 0.0 1.0
outer loop
vertex 1022.3193514803795 71.55864573213722 15.435199088069668
vertex 1022.1999563197759 68.91411298431548 15.435199088069668
vertex 1023.4528248321582 68.91411298431548 15.435199088069668
endloop
endfacet
facet normal 8.881784197001264e-16 0.0 1.0
outer loop
vertex 1022.3193514803795 71.55864573213722 15.435199088069668
vertex 1023.4528248321582 68.91411298431548 15.435199088069668
vertex 1022.3610621657982 71.8754698424501 15.435199088069668
endloop
endfacet
facet normal 8.881784197001264e-16 0.0 1.0
outer loop
vertex 1022.3610621657982 71.8754698424501 15.435199088069668
vertex 1023.4528248321582 68.91411298431548 15.435199088069668
vertex 1022.5789848837097 74.73546984245007 15.435199088069668
endloop
endfacet
facet normal 8.881784197001264e-16 0.0 1.0
outer loop
vertex 1022.5789848837097 74.73546984245007 15.435199088069668
vertex 1023.4528248321582 68.91411298431548 15.435199088069668
vertex 1022.5789848837097 75.97208978416953 15.435199088069668
endloop
endfacet
facet normal 8.881784197001264e-16 0.0 1.0
outer loop
vertex 1022.5789848837097 75.97208978416953 15.435199088069668
vertex 1023.4528248321582 68.91411298431548 15.435199088069668
vertex 1023.4528248321582 70.15073292603495 15.435199088069668
endloop
endfacet
facet normal 8.881784197001264e-16 0.0 1.0
outer loop
vertex 1022.5789848837097 75.97208978416953 15.435199088069668
vertex 1023.4528248321582 70.15073292603495 15.435199088069668
vertex 1024.705347630271 75.97208978416953 15.435199088069666
endloop
endfacet
facet normal 8.881784197001264e-16 0.0 1.0
outer loop
vertex 1024.705347630271 75.97208978416953 15.435199088069666
vertex 1023.4528248321582 70.15073292603495 15.435199088069668
vertex 1024.705347630271 70.15073292603495 15.435199088069666
endloop
endfacet
facet normal 8.881784197001264e-16 0.0 1.0
outer loop
vertex 1024.705347630271 75.97208978416953 15.435199088069666
vertex 1024.705347630271 70.15073292603495 15.435199088069666
vertex 1024.705347630271 71.38769858202377 15.435199088069666
endloop
endfacet
facet normal 8.881784197001264e-16 0.0 1.0
outer loop
vertex 1024.705347630271 75.97208978416953 15.435199088069666
vertex 1024.705347630271 71.38769858202377 15.435199088069666
vertex 1024.705347630271 74.73546984245007 15.435199088069666
endloop
endfacet
facet normal 8.881784197001264e-16 0.0 1.0
outer loop
vertex 1019.6949107235502 74.73546984245007 15.435199088069673
vertex 1020.271368237193 72.74104940888719 15.435199088069668
vertex 1022.5789848837097 74.73546984245007 15.435199088069668
endloop
endfacet
facet normal 8.881784197001264e-16 0.0 1.0
outer loop
vertex 1020.271368237193 72.74104940888719 15.435199088069668
vertex 1019.6949107235502 74.73546984245007 15.435199088069673
vertex 1020.0768336688546 72.48752702353389 15.435199088069668
endloop
endfacet
facet normal 8.881784197001264e-16 0.0 1.0
outer loop
vertex 1020.0768336688546 72.48752702353389 15.435199088069668
vertex 1019.6949107235502 74.73546984245007 15.435199088069673
vertex 1019.9545441268803 72.19229395276324 15.435199088069668
endloop
endfacet
facet normal 8.881784197001264e-16 0.0 1.0
outer loop
vertex 1019.9545441268803 72.19229395276324 15.435199088069668
vertex 1019.6949107235502 74.73546984245007 15.435199088069673
vertex 1019.9128334414615 71.8754698424501 15.435199088069673
endloop
endfacet
facet normal 8.881784197001264e-16 0.0 1.0
outer loop
vertex 1022.5789848837097 74.73546984245007 15.435199088069668
vertex 1020.271368237193 72.74104940888719 15.435199088069668
vertex 1020.5248906225459 72.93558397722514 15.435199088069668
endloop
endfacet
facet normal 8.881784197001264e-16 0.0 1.0
outer loop
vertex 1022.5789848837097 74.73546984245007 15.435199088069668
vertex 1020.5248906225459 72.93558397722514 15.435199088069668
vertex 1020.8201236933174 73.05787351919986 15.435199088069668
endloop
endfacet
facet normal 8.881784197001264e-16 0.0 1.0
outer loop
vertex 1022.5789848837097 74.73546984245007 15.435199088069668
vertex 1020.8201236933174 73.05787351919986 15.435199088069668
vertex 1021.1369478036298 73.0995842046184 15.435199088069668
endloop
endfacet
facet normal 8.881784197001264e-16 0.0 1.0
outer loop
vertex 1022.5789848837097 74.73546984245007 15.435199088069668
vertex 1021.1369478036298 73.0995842046184 15.435199088069668
vertex 1021.4537719139424 73.05787351919983 15.435199088069671
endloop
endfacet
facet normal 8.881784197001264e-16 0.0 1.0
outer loop
vertex 1022.5789848837097 74.73546984245007 15.435199088069668
vertex 1021.4537719139424 73.05787351919983 15.435199088069671
vertex 1021.749004984714 72.93558397722522 15.435199088069668
endloop
endfacet
facet normal 8.881784197001264e-16 0.0 1.0
outer loop
vertex 1022.5789848837097 74.73546984245007 15.435199088069668
vertex 1021.749004984714 72.93558397722522 15.435199088069668
vertex 1022.0025273700669 72.74104940888726 15.435199088069668
endloop
endfacet
facet normal 8.881784197001264e-16 0.0 1.0
outer loop
vertex 1022.5789848837097 74.73546984245007 15.435199088069668
vertex 1022.0025273700669 72.74104940888726 15.435199088069668
vertex 1022.1970619384052 72.48752702353394 15.435199088069668
endloop
endfacet
facet normal 8.881784197001264e-16 0.0 1.0
outer loop
vertex 1022.5789848837097 74.73546984245007 15.435199088069668
vertex 1022.1970619384052 72.48752702353394 15.435199088069668
vertex 1022.3193514803795 72.19229395276295 15.435199088069668
endloop
endfacet
facet normal 8.881784197001264e-16 0.0 1.0
outer loop
vertex 1022.5789848837097 74.73546984245007 15.435199088069668
vertex 1022.3193514803795 72.19229395276295 15.435199088069668
vertex 1022.3610621657982 71.8754698424501 15.435199088069668
endloop
endfacet
facet normal 8.881784197001264e-16 0.0 1.0
outer loop
vertex 1020.073939287484 68.91411298431548 15.435199088069668
vertex 1018.8210707751017 70.15073292603495 15.435199088069668
vertex 1018.8210707751017 68.91411298431548 15.435199088069668
endloop
endfacet
facet normal 8.881784197001264e-16 0.0 1.0
outer loop
vertex 1018.8210707751017 70.15073292603495 15.435199088069668
vertex 1020.073939287484 68.91411298431548 15.435199088069668
vertex 1019.6949107235502 74.73546984245007 15.435199088069673
endloop
endfacet
facet normal 8.881784197001264e-16 0.0 1.0
outer loop
vertex 1019.6949107235502 74.73546984245007 15.435199088069673
vertex 1020.073939287484 68.91411298431548 15.435199088069668
vertex 1019.9128334414615 71.8754698424501 15.435199088069673
endloop
endfacet
facet normal 8.881784197001264e-16 0.0 1.0
outer loop
vertex 1019.9128334414615 71.8754698424501 15.435199088069673
vertex 1020.073939287484 68.91411298431548 15.435199088069668
vertex 1019.9545441268803 71.55864573213695 15.435199088069668
endloop
endfacet
facet normal 8.881784197001264e-16 0.0 1.0
outer loop
vertex 1019.9545441268803 71.55864573213695 15.435199088069668
vertex 1020.073939287484 68.91411298431548 15.435199088069668
vertex 1020.0768336688546 71.2634126613663 15.435199088069668
endloop
endfacet
facet normal 8.881784197001264e-16 0.0 1.0
outer loop
vertex 1018.8210707751017 70.15073292603495 15.435199088069668
vertex 1017.568547976989 71.38769858202377 15.435199088069671
vertex 1017.568547976989 70.15073292603495 15.435199088069671
endloop
endfacet
facet normal 8.881784197001264e-16 0.0 1.0
outer loop
vertex 1017.568547976989 71.38769858202377 15.435199088069671
vertex 1018.8210707751017 70.15073292603495 15.435199088069668
vertex 1017.568547976989 74.73546984245007 15.435199088069671
endloop
endfacet
facet normal 8.881784197001264e-16 0.0 1.0
outer loop
vertex 1017.568547976989 74.73546984245007 15.435199088069671
vertex 1018.8210707751017 70.15073292603495 15.435199088069668
vertex 1017.568547976989 75.97208978416953 15.435199088069671
endloop
endfacet
facet normal 8.881784197001264e-16 0.0 1.0
outer loop
vertex 1017.568547976989 75.97208978416953 15.435199088069671
vertex 1018.8210707751017 70.15073292603495 15.435199088069668
vertex 1019.6949107235502 75.97208978416953 15.435199088069673
endloop
endfacet
facet normal 8.881784197001264e-16 0.0 1.0
outer loop
vertex 1019.6949107235502 75.97208978416953 15.435199088069673
vertex 1018.8210707751017 70.15073292603495 15.435199088069668
vertex 1019.6949107235502 74.73546984245007 15.435199088069673
endloop
endfacet
facet normal 8.881784197001264e-16 0.0 1.0
outer loop
vertex 1017.568547976989 71.38769858202377 15.435199088069671
vertex 1016.3156794646067 74.73546984245007 15.435199088069673
vertex 1016.3156794646067 71.38769858202377 15.435199088069673
endloop
endfacet
facet normal 8.881784197001264e-16 0.0 1.0
outer loop
vertex 1016.3156794646067 74.73546984245007 15.435199088069673
vertex 1017.568547976989 71.38769858202377 15.435199088069671
vertex 1017.568547976989 74.73546984245007 15.435199088069671
endloop
endfacet
facet normal 1.0 0.0 -8.881784197001264e-16
outer loop
vertex 1024.705347630271 75.97208978416953 12.135199088082379
vertex 1024.705347630271 74.73546984245007 15.435199088069666
vertex 1024.705347630271 74.73546984245007 12.135199088082379
endloop
endfacet
facet normal 1.0 0.0 -8.881784197001264e-16
outer loop
vertex 1024.705347630271 74.73546984245007 15.435199088069666
vertex 1024.705347630271 75.97208978416953 12.135199088082379
vertex 1024.705347630271 75.97208978416953 15.435199088069666
endloop
endfacet
facet normal 0.0 1.0 0.0
outer loop
vertex 1017.568547976989 75.97208978416953 12.135199088082384
vertex 1019.6949107235502 75.97208978416953 15.435199088069673
vertex 1019.6949107235502 75.97208978416953 12.13519908808238
endloop
endfacet
facet normal 0.0 1.0 0.0
outer loop
vertex 1019.6949107235502 75.97208978416953 15.435199088069673
vertex 1017.568547976989 75.97208978416953 12.135199088082384
vertex 1017.568547976989 75.97208978416953 15.435199088069671
endloop
endfacet
facet normal -1.0 0.0 8.881784197001264e-16
outer loop
vertex 1017.568547976989 71.38769858202377 15.435199088069671
vertex 1017.568547976989 70.15073292603495 12.135199088082384
vertex 1017.568547976989 70.15073292603495 15.435199088069671
endloop
endfacet
facet normal -1.0 0.0 8.881784197001264e-16
outer loop
vertex 1017.568547976989 70.15073292603495 12.135199088082384
vertex 1017.568547976989 71.38769858202377 15.435199088069671
vertex 1017.568547976989 71.38769858202377 12.135199088082384
endloop
endfacet
facet normal 0.0 -1.0 0.0
outer loop
vertex 1017.568547976989 71.38769858202377 15.435199088069671
vertex 1016.3156794646067 71.38769858202377 12.135199088082384
vertex 1017.568547976989 71.38769858202377 12.135199088082384
endloop
endfacet
facet normal 0.0 -1.0 0.0
outer loop
vertex 1016.3156794646067 71.38769858202377 12.135199088082384
vertex 1017.568547976989 71.38769858202377 15.435199088069671
vertex 1016.3156794646067 71.38769858202377 15.435199088069673
endloop
endfacet
facet normal 0.0 -1.0 0.0
outer loop
vertex 1022.1999563197759 67.67714732832658 15.435199088069668
vertex 1020.073939287484 67.67714732832658 12.13519908808238
vertex 1022.1999563197759 67.67714732832658 12.13519908808238
endloop
endfacet
facet normal 0.0 -1.0 0.0
outer loop
vertex 1020.073939287484 67.67714732832658 12.13519908808238
vertex 1022.1999563197759 67.67714732832658 15.435199088069668
vertex 1020.073939287484 67.67714732832658 15.435199088069668
endloop
endfacet
facet normal 1.0 0.0 -8.881784197001264e-16
outer loop
vertex 1025.9582161426533 74.73546984245007 12.135199088082379
vertex 1025.9582161426533 71.38769858202377 15.435199088069663
vertex 1025.9582161426533 71.38769858202377 12.135199088082379
endloop
endfacet
facet normal 1.0 0.0 -8.881784197001264e-16
outer loop
vertex 1025.9582161426533 71.38769858202377 15.435199088069663
vertex 1025.9582161426533 74.73546984245007 12.135199088082379
vertex 1025.9582161426533 74.73546984245007 15.435199088069663
endloop
endfacet
facet normal -1.0 0.0 8.881784197001264e-16
outer loop
vertex 1020.073939287484 68.91411298431548 15.435199088069668
vertex 1020.073939287484 67.67714732832658 12.13519908808238
vertex 1020.073939287484 67.67714732832658 15.435199088069668
endloop
endfacet
facet normal -1.0 0.0 8.881784197001264e-16
outer loop
vertex 1020.073939287484 67.67714732832658 12.13519908808238
vertex 1020.073939287484 68.91411298431548 15.435199088069668
vertex 1020.073939287484 68.91411298431548 12.13519908808238
endloop
endfacet
facet normal 0.0 1.0 0.0
outer loop
vertex 1022.5789848837097 75.97208978416953 12.13519908808238
vertex 1024.705347630271 75.97208978416953 15.435199088069666
vertex 1024.705347630271 75.97208978416953 12.135199088082379
endloop
endfacet
facet normal 0.0 1.0 0.0
outer loop
vertex 1024.705347630271 75.97208978416953 15.435199088069666
vertex 1022.5789848837097 75.97208978416953 12.13519908808238
vertex 1022.5789848837097 75.97208978416953 15.435199088069668
endloop
endfacet
facet normal 1.0 0.0 -8.881784197001264e-16
outer loop
vertex 1024.705347630271 71.38769858202377 12.135199088082379
vertex 1024.705347630271 70.15073292603495 15.435199088069666
vertex 1024.705347630271 70.15073292603495 12.135199088082379
endloop
endfacet
facet normal 1.0 0.0 -8.881784197001264e-16
outer loop
vertex 1024.705347630271 70.15073292603495 15.435199088069666
vertex 1024.705347630271 71.38769858202377 12.135199088082379
vertex 1024.705347630271 71.38769858202377 15.435199088069666
endloop
endfacet
facet normal 0.5000000000000026 -0.8660254037844372 -4.690117406746439e-16
outer loop
vertex 1020.5248906225459 72.93558397722514 15.435199088069668
vertex 1020.271368237193 72.74104940888719 13.33519908806967
vertex 1020.5248906225459 72.93558397722514 13.33519908806967
endloop
endfacet
facet normal 0.7071067811865073 -0.7071067811865879 -6.508611815576015e-16
outer loop
vertex 1020.271368237193 72.74104940888719 13.33519908806967
vertex 1020.5248906225459 72.93558397722514 15.435199088069668
vertex 1020.271368237193 72.74104940888719 15.435199088069668
endloop
endfacet
facet normal 0.2588190451026567 -0.965925826289032 -2.5519992474333917e-16
outer loop
vertex 1020.8201236933174 73.05787351919986 15.435199088069668
vertex 1020.5248906225459 72.93558397722514 13.33519908806967
vertex 1020.8201236933174 73.05787351919986 13.33519908806967
endloop
endfacet
facet normal 0.5000000000000026 -0.8660254037844372 -4.690117406746439e-16
outer loop
vertex 1020.5248906225459 72.93558397722514 13.33519908806967
vertex 1020.8201236933174 73.05787351919986 15.435199088069668
vertex 1020.5248906225459 72.93558397722514 15.435199088069668
endloop
endfacet
facet normal -1.5995442262686167e-14 -1.0 -2.3996655678346198e-17
outer loop
vertex 1021.1369478036298 73.0995842046184 15.435199088069668
vertex 1020.8201236933174 73.05787351919986 13.33519908806967
vertex 1021.1369478036298 73.0995842046184 13.33519908806967
endloop
endfacet
facet normal 0.2588190451026567 -0.965925826289032 -2.5519992474333917e-16
outer loop
vertex 1020.8201236933174 73.05787351919986 13.33519908806967
vertex 1021.1369478036298 73.0995842046184 15.435199088069668
vertex 1020.8201236933174 73.05787351919986 15.435199088069668
endloop
endfacet
facet normal 1.0 0.0 -8.881784197001264e-16
outer loop
vertex 1023.4528248321582 70.15073292603495 12.135199088082379
vertex 1023.4528248321582 68.91411298431548 15.435199088069668
vertex 1023.4528248321582 68.91411298431548 12.135199088082379
endloop
endfacet
facet normal 1.0 0.0 -8.881784197001264e-16
outer loop
vertex 1023.4528248321582 68.91411298431548 15.435199088069668
vertex 1023.4528248321582 70.15073292603495 12.135199088082379
vertex 1023.4528248321582 70.15073292603495 15.435199088069668
endloop
endfacet
facet normal 0.0 1.0 0.0
outer loop
vertex 1019.6949107235502 74.73546984245007 15.435199088069673
vertex 1022.5789848837097 74.73546984245007 12.13519908808238
vertex 1019.6949107235502 74.73546984245007 12.13519908808238
endloop
endfacet
facet normal 0.0 1.0 0.0
outer loop
vertex 1022.5789848837097 74.73546984245007 12.13519908808238
vertex 1019.6949107235502 74.73546984245007 15.435199088069673
vertex 1022.5789848837097 74.73546984245007 15.435199088069668
endloop
endfacet
facet normal -1.0 0.0 8.881784197001264e-16
outer loop
vertex 1017.568547976989 75.97208978416953 15.435199088069671
vertex 1017.568547976989 74.73546984245007 12.135199088082384
vertex 1017.568547976989 74.73546984245007 15.435199088069671
endloop
endfacet
facet normal -1.0 0.0 8.881784197001264e-16
outer loop
vertex 1017.568547976989 74.73546984245007 12.135199088082384
vertex 1017.568547976989 75.97208978416953 15.435199088069671
vertex 1017.568547976989 75.97208978416953 12.135199088082384
endloop
endfacet
facet normal 0.0 -1.0 0.0
outer loop
vertex 1024.705347630271 70.15073292603495 15.435199088069666
vertex 1023.4528248321582 70.15073292603495 12.135199088082379
vertex 1024.705347630271 70.15073292603495 12.135199088082379
endloop
endfacet
facet normal 0.0 -1.0 0.0
outer loop
vertex 1023.4528248321582 70.15073292603495 12.135199088082379
vertex 1024.705347630271 70.15073292603495 15.435199088069666
vertex 1023.4528248321582 70.15073292603495 15.435199088069668
endloop
endfacet
facet normal 8.964600545026265e-16 -2.3996655678360545e-17 1.0
outer loop
vertex 1019.9545441268803 71.55864573213695 13.33519908806967
vertex 1019.9545441268803 72.19229395276324 13.33519908806967
vertex 1019.9128334414615 71.8754698424501 13.33519908806967
endloop
endfacet
facet normal 8.964600545026265e-16 -2.3996655678360545e-17 1.0
outer loop
vertex 1019.9545441268803 72.19229395276324 13.33519908806967
vertex 1019.9545441268803 71.55864573213695 13.33519908806967
vertex 1020.0768336688546 71.2634126613663 13.33519908806967
endloop
endfacet
facet normal 8.964600545026265e-16 -2.3996655678360545e-17 1.0
outer loop
vertex 1019.9545441268803 72.19229395276324 13.33519908806967
vertex 1020.0768336688546 71.2634126613663 13.33519908806967
vertex 1020.0768336688546 72.48752702353389 13.33519908806967
endloop
endfacet
facet normal 8.964600545026265e-16 -2.3996655678360545e-17 1.0
outer loop
vertex 1020.0768336688546 72.48752702353389 13.33519908806967
vertex 1020.0768336688546 71.2634126613663 13.33519908806967
vertex 1020.2713682371932 71.00989027601287 13.33519908806967
endloop
endfacet
facet normal 8.964600545026265e-16 -2.3996655678360545e-17 1.0
outer loop
vertex 1020.0768336688546 72.48752702353389 13.33519908806967
vertex 1020.2713682371932 71.00989027601287 13.33519908806967
vertex 1020.271368237193 72.74104940888719 13.33519908806967
endloop
endfacet
facet normal 8.964600545026265e-16 -2.3996655678360545e-17 1.0
outer loop
vertex 1020.271368237193 72.74104940888719 13.33519908806967
vertex 1020.2713682371932 71.00989027601287 13.33519908806967
vertex 1020.5248906225459 72.93558397722514 13.33519908806967
endloop
endfacet
facet normal 8.964600545026265e-16 -2.3996655678360545e-17 1.0
outer loop
vertex 1020.5248906225459 72.93558397722514 13.33519908806967
vertex 1020.2713682371932 71.00989027601287 13.33519908806967
vertex 1020.5248906225455 70.81535570767497 13.33519908806967
endloop
endfacet
facet normal 8.964600545026265e-16 -2.3996655678360545e-17 1.0
outer loop
vertex 1020.5248906225459 72.93558397722514 13.33519908806967
vertex 1020.5248906225455 70.81535570767497 13.33519908806967
vertex 1020.8201236933172 70.69306616570036 13.33519908806967
endloop
endfacet
facet normal 8.964600545026265e-16 -2.3996655678360545e-17 1.0
outer loop
vertex 1020.5248906225459 72.93558397722514 13.33519908806967
vertex 1020.8201236933172 70.69306616570036 13.33519908806967
vertex 1020.8201236933174 73.05787351919986 13.33519908806967
endloop
endfacet
facet normal 8.964600545026265e-16 -2.3996655678360545e-17 1.0
outer loop
vertex 1020.8201236933174 73.05787351919986 13.33519908806967
vertex 1020.8201236933172 70.69306616570036 13.33519908806967
vertex 1021.1369478036298 70.6513554802818 13.33519908806967
endloop
endfacet
facet normal 8.964600545026265e-16 -2.3996655678360545e-17 1.0
outer loop
vertex 1020.8201236933174 73.05787351919986 13.33519908806967
vertex 1021.1369478036298 70.6513554802818 13.33519908806967
vertex 1021.1369478036298 73.0995842046184 13.33519908806967
endloop
endfacet
facet normal 8.964600545026265e-16 -2.3996655678360545e-17 1.0
outer loop
vertex 1021.1369478036298 73.0995842046184 13.33519908806967
vertex 1021.1369478036298 70.6513554802818 13.33519908806967
vertex 1021.4537719139424 70.69306616570034 13.33519908806967
endloop
endfacet
facet normal 8.964600545026265e-16 -2.3996655678360545e-17 1.0
outer loop
vertex 1021.1369478036298 73.0995842046184 13.33519908806967
vertex 1021.4537719139424 70.69306616570034 13.33519908806967
vertex 1021.4537719139424 73.05787351919983 13.33519908806967
endloop
endfacet
facet normal 8.964600545026265e-16 -2.3996655678360545e-17 1.0
outer loop
vertex 1021.4537719139424 73.05787351919983 13.33519908806967
vertex 1021.4537719139424 70.69306616570034 13.33519908806967
vertex 1021.749004984714 70.81535570767494 13.33519908806967
endloop
endfacet
facet normal 8.964600545026265e-16 -2.3996655678360545e-17 1.0
outer loop
vertex 1021.4537719139424 73.05787351919983 13.33519908806967
vertex 1021.749004984714 70.81535570767494 13.33519908806967
vertex 1021.749004984714 72.93558397722522 13.33519908806967
endloop
endfacet
facet normal 8.964600545026265e-16 -2.3996655678360545e-17 1.0
outer loop
vertex 1021.749004984714 72.93558397722522 13.33519908806967
vertex 1021.749004984714 70.81535570767494 13.33519908806967
vertex 1022.0025273700669 71.00989027601305 13.33519908806967
endloop
endfacet
facet normal 8.964600545026265e-16 -2.3996655678360545e-17 1.0
outer loop
vertex 1021.749004984714 72.93558397722522 13.33519908806967
vertex 1022.0025273700669 71.00989027601305 13.33519908806967
vertex 1022.0025273700669 72.74104940888726 13.33519908806967
endloop
endfacet
facet normal 8.964600545026265e-16 -2.3996655678360545e-17 1.0
outer loop
vertex 1022.0025273700669 72.74104940888726 13.33519908806967
vertex 1022.0025273700669 71.00989027601305 13.33519908806967
vertex 1022.1970619384052 71.26341266136616 13.33519908806967
endloop
endfacet
facet normal 8.964600545026265e-16 -2.3996655678360545e-17 1.0
outer loop
vertex 1022.0025273700669 72.74104940888726 13.33519908806967
vertex 1022.1970619384052 71.26341266136616 13.33519908806967
vertex 1022.1970619384052 72.48752702353394 13.33519908806967
endloop
endfacet
facet normal 8.964600545026265e-16 -2.3996655678360545e-17 1.0
outer loop
vertex 1022.1970619384052 72.48752702353394 13.33519908806967
vertex 1022.1970619384052 71.26341266136616 13.33519908806967
vertex 1022.3193514803795 71.55864573213722 13.335199088069672
endloop
endfacet
facet normal 8.964600545026265e-16 -2.3996655678360545e-17 1.0
outer loop
vertex 1022.1970619384052 72.48752702353394 13.33519908806967
vertex 1022.3193514803795 71.55864573213722 13.335199088069672
vertex 1022.3193514803795 72.19229395276295 13.335199088069672
endloop
endfacet
facet normal 8.964600545026265e-16 -2.3996655678360545e-17 1.0
outer loop
vertex 1022.3193514803795 72.19229395276295 13.335199088069672
vertex 1022.3193514803795 71.55864573213722 13.335199088069672
vertex 1022.3610621657982 71.8754698424501 13.335199088069672
endloop
endfacet
facet normal 1.0 0.0 -8.881784197001264e-16
outer loop
vertex 1019.6949107235502 75.97208978416953 12.13519908808238
vertex 1019.6949107235502 74.73546984245007 15.435199088069673
vertex 1019.6949107235502 74.73546984245007 12.13519908808238
endloop
endfacet
facet normal 1.0 0.0 -8.881784197001264e-16
outer loop
vertex 1019.6949107235502 74.73546984245007 15.435199088069673
vertex 1019.6949107235502 75.97208978416953 12.13519908808238
vertex 1019.6949107235502 75.97208978416953 15.435199088069673
endloop
endfacet
endsolid robot_beetle
